<mxfile host="www.draw.io" modified="2020-02-24T13:15:23.614Z" agent="Mozilla/5.0 (Windows NT 10.0; Win64; x64) AppleWebKit/537.36 (KHTML, like Gecko) Chrome/79.0.3945.130 Safari/537.36" etag="yscSYOoaoh6iwCf1ICd6" version="12.7.4" type="github">
  <diagram id="FU2jl-nVdFqhtEl1jsCs" name="Page-1">
    <mxGraphModel dx="1422" dy="794" grid="1" gridSize="10" guides="1" tooltips="1" connect="1" arrows="1" fold="1" page="1" pageScale="1" pageWidth="827" pageHeight="1169" math="0" shadow="0">
      <root>
        <mxCell id="0" />
        <mxCell id="1" parent="0" />
        <mxCell id="9wC37F1GAK_f2iemdnNm-3" value="Het kempenrust" style="text;html=1;align=center;verticalAlign=middle;resizable=0;points=[];autosize=1;" parent="1" vertex="1">
          <mxGeometry x="375" y="60" width="100" height="20" as="geometry" />
        </mxCell>
        <mxCell id="9wC37F1GAK_f2iemdnNm-4" value="Bezoeker" style="shape=umlActor;verticalLabelPosition=bottom;labelBackgroundColor=#ffffff;verticalAlign=top;html=1;outlineConnect=0;" parent="1" vertex="1">
          <mxGeometry x="60" y="120" width="30" height="60" as="geometry" />
        </mxCell>
        <mxCell id="2KRyksRzDxgjtG9OQZVo-1" value="Admin" style="shape=umlActor;verticalLabelPosition=bottom;labelBackgroundColor=#ffffff;verticalAlign=top;html=1;outlineConnect=0;" vertex="1" parent="1">
          <mxGeometry x="40" y="480" width="50" height="130" as="geometry" />
        </mxCell>
        <mxCell id="2KRyksRzDxgjtG9OQZVo-2" value="" style="endArrow=classic;html=1;" edge="1" parent="1" source="9wC37F1GAK_f2iemdnNm-2">
          <mxGeometry width="50" height="50" relative="1" as="geometry">
            <mxPoint x="390" y="430" as="sourcePoint" />
            <mxPoint x="440" y="380" as="targetPoint" />
          </mxGeometry>
        </mxCell>
        <mxCell id="9wC37F1GAK_f2iemdnNm-2" value="" style="rounded=0;whiteSpace=wrap;html=1;rotation=90;" parent="1" vertex="1">
          <mxGeometry x="91.25" y="173.75" width="722.5" height="555" as="geometry" />
        </mxCell>
        <mxCell id="2KRyksRzDxgjtG9OQZVo-3" value="" style="endArrow=classic;html=1;exitX=0.5;exitY=0;exitDx=0;exitDy=0;exitPerimeter=0;" edge="1" parent="1" source="2KRyksRzDxgjtG9OQZVo-1">
          <mxGeometry width="50" height="50" relative="1" as="geometry">
            <mxPoint x="80" y="350" as="sourcePoint" />
            <mxPoint x="80" y="210" as="targetPoint" />
            <Array as="points" />
          </mxGeometry>
        </mxCell>
        <mxCell id="2KRyksRzDxgjtG9OQZVo-4" value="Aanmelden op systeem" style="ellipse;whiteSpace=wrap;html=1;" vertex="1" parent="1">
          <mxGeometry x="200" y="470" width="170" height="50" as="geometry" />
        </mxCell>
        <mxCell id="2KRyksRzDxgjtG9OQZVo-5" value="Online Reserveren" style="ellipse;whiteSpace=wrap;html=1;" vertex="1" parent="1">
          <mxGeometry x="250" y="110" width="180" height="65" as="geometry" />
        </mxCell>
        <mxCell id="2KRyksRzDxgjtG9OQZVo-6" value="" style="endArrow=classic;html=1;exitX=1;exitY=0.3333333333333333;exitDx=0;exitDy=0;exitPerimeter=0;" edge="1" parent="1" source="9wC37F1GAK_f2iemdnNm-4" target="2KRyksRzDxgjtG9OQZVo-5">
          <mxGeometry width="50" height="50" relative="1" as="geometry">
            <mxPoint x="110" y="175" as="sourcePoint" />
            <mxPoint x="160" y="125" as="targetPoint" />
          </mxGeometry>
        </mxCell>
        <mxCell id="2KRyksRzDxgjtG9OQZVo-9" value="" style="endArrow=classic;html=1;entryX=0;entryY=0.5;entryDx=0;entryDy=0;exitX=0.5;exitY=0.5;exitDx=0;exitDy=0;exitPerimeter=0;" edge="1" parent="1" source="2KRyksRzDxgjtG9OQZVo-1" target="2KRyksRzDxgjtG9OQZVo-4">
          <mxGeometry width="50" height="50" relative="1" as="geometry">
            <mxPoint x="110" y="420" as="sourcePoint" />
            <mxPoint x="160" y="370" as="targetPoint" />
            <Array as="points" />
          </mxGeometry>
        </mxCell>
        <mxCell id="2KRyksRzDxgjtG9OQZVo-12" value="Datum/tijd selecteren" style="ellipse;whiteSpace=wrap;html=1;" vertex="1" parent="1">
          <mxGeometry x="375" y="200" width="120" height="80" as="geometry" />
        </mxCell>
        <mxCell id="2KRyksRzDxgjtG9OQZVo-13" value="Gegevens ingeven" style="ellipse;whiteSpace=wrap;html=1;" vertex="1" parent="1">
          <mxGeometry x="200" y="210" width="120" height="80" as="geometry" />
        </mxCell>
        <mxCell id="2KRyksRzDxgjtG9OQZVo-15" value="Extra opmerking" style="ellipse;whiteSpace=wrap;html=1;" vertex="1" parent="1">
          <mxGeometry x="495" y="160" width="130" height="50" as="geometry" />
        </mxCell>
        <mxCell id="2KRyksRzDxgjtG9OQZVo-17" value="-&lt;br&gt;" style="endArrow=classic;html=1;exitX=0.5;exitY=0.5;exitDx=0;exitDy=0;exitPerimeter=0;" edge="1" parent="1" source="2KRyksRzDxgjtG9OQZVo-1" target="2KRyksRzDxgjtG9OQZVo-18">
          <mxGeometry width="50" height="50" relative="1" as="geometry">
            <mxPoint x="90" y="540" as="sourcePoint" />
            <mxPoint x="180" y="380" as="targetPoint" />
            <Array as="points">
              <mxPoint x="130" y="560" />
            </Array>
          </mxGeometry>
        </mxCell>
        <mxCell id="2KRyksRzDxgjtG9OQZVo-18" value="reservatie goedkeuren" style="ellipse;whiteSpace=wrap;html=1;" vertex="1" parent="1">
          <mxGeometry x="192.5" y="540" width="135" height="70" as="geometry" />
        </mxCell>
        <mxCell id="2KRyksRzDxgjtG9OQZVo-19" value="" style="endArrow=none;dashed=1;html=1;" edge="1" parent="1">
          <mxGeometry width="50" height="50" relative="1" as="geometry">
            <mxPoint x="270" y="220" as="sourcePoint" />
            <mxPoint x="320" y="170" as="targetPoint" />
          </mxGeometry>
        </mxCell>
        <mxCell id="2KRyksRzDxgjtG9OQZVo-20" value="" style="endArrow=none;dashed=1;html=1;" edge="1" parent="1" source="2KRyksRzDxgjtG9OQZVo-12">
          <mxGeometry width="50" height="50" relative="1" as="geometry">
            <mxPoint x="350" y="210" as="sourcePoint" />
            <mxPoint x="400" y="160" as="targetPoint" />
          </mxGeometry>
        </mxCell>
        <mxCell id="2KRyksRzDxgjtG9OQZVo-21" value="" style="endArrow=none;dashed=1;html=1;" edge="1" parent="1" target="2KRyksRzDxgjtG9OQZVo-15">
          <mxGeometry width="50" height="50" relative="1" as="geometry">
            <mxPoint x="425" y="150" as="sourcePoint" />
            <mxPoint x="475" y="100" as="targetPoint" />
          </mxGeometry>
        </mxCell>
        <mxCell id="2KRyksRzDxgjtG9OQZVo-24" value="Voorschot betalen" style="ellipse;whiteSpace=wrap;html=1;" vertex="1" parent="1">
          <mxGeometry x="207.5" y="310" width="120" height="80" as="geometry" />
        </mxCell>
        <mxCell id="2KRyksRzDxgjtG9OQZVo-25" value="Kamer inactief zetten" style="ellipse;whiteSpace=wrap;html=1;" vertex="1" parent="1">
          <mxGeometry x="192.5" y="620" width="135" height="70" as="geometry" />
        </mxCell>
        <mxCell id="2KRyksRzDxgjtG9OQZVo-26" value="" style="endArrow=classic;html=1;exitX=0.5;exitY=0.5;exitDx=0;exitDy=0;exitPerimeter=0;" edge="1" parent="1" source="2KRyksRzDxgjtG9OQZVo-1" target="2KRyksRzDxgjtG9OQZVo-25">
          <mxGeometry width="50" height="50" relative="1" as="geometry">
            <mxPoint x="90" y="570" as="sourcePoint" />
            <mxPoint x="140" y="485" as="targetPoint" />
          </mxGeometry>
        </mxCell>
        <mxCell id="2KRyksRzDxgjtG9OQZVo-27" value="" style="endArrow=classic;html=1;exitX=1;exitY=1;exitDx=0;exitDy=0;exitPerimeter=0;" edge="1" parent="1" source="9wC37F1GAK_f2iemdnNm-4" target="2KRyksRzDxgjtG9OQZVo-24">
          <mxGeometry width="50" height="50" relative="1" as="geometry">
            <mxPoint x="90" y="175" as="sourcePoint" />
            <mxPoint x="140" y="125" as="targetPoint" />
          </mxGeometry>
        </mxCell>
      </root>
    </mxGraphModel>
  </diagram>
</mxfile>
